PathFileType	4	(X/Y/Z)	C:/Users/beibeiliu/ov580/test_trc/User1\sequence.1_training_dense_right.trc
DataRate	CameraRate	NumFrames	NumMarkers	Units	OrigDataRate	OrigDataStartFrame	OrigNumFrames
120	120	16	19	mm	120	148	294
Frame#	Time	ThumbCMC			ThumbMCP			ThumbIP			ThumbTip			IndexMCP			IndexPIP			IndexTip			MiddleMCP			MiddlePIP			MiddleTip			RingMCP			RingPIP			RingTip			PinkyMCP			PinkyPIP			PinkyTip			BackHand1			BackHand2			BackHand3	
		X0	Y0	Z0	X1	Y1	Z1	X2	Y2	Z2	X3	Y3	Z3	X4	Y4	Z4	X5	Y5	Z5	X6	Y6	Z6	X7	Y7	Z7	X8	Y8	Z8	X9	Y9	Z9	X10	Y10	Z10	X11	Y11	Z11	X12	Y12	Z12	X13	Y13	Z13	X14	Y14	Z14	X15	Y15	Z15	X16	Y16	Z16	X17	Y17	Z17	X18	Y18	Z18	
147	1.225	165.32	45.7632	33.1632	140.459	43.383	18.5894	123.54	41.1706	-3.21091	106.383	36.5779	-18.7054	171.506	-4.0132	-39.9207	157.917	-24.7614	-57.1077	137.96	-49.6512	-61.0581	192.742	-25.3359	-40.0443	173.6	-46.9089	-59.8634	147.826	-69.873	-62.4613	204.668	-37.2118	-25.1582	192.203	-61.2993	-42.6562	167.356	-80.6028	-42.8822	213.379	-47.4331	1.87768	204.903	-69.6106	-12.6211	181.926	-84.6926	-23.711	219.701	-0.523785	20.9506	223.974	13.4413	47.745	202.793	29.4287	25.4702	
148	1.23333	167.433	44.9918	34.4187	140.25	46.8685	16.0235	123.568	46.2883	-7.06117	106.086	43.1769	-20.0603	168.56	-2.88161	-42.5806	153.624	-25.5925	-58.2384	132.436	-45.386	-63.7405	187.604	-24.7855	-40.1515	173.041	-45.4138	-57.0878	144.079	-69.9661	-60.6778	199.428	-39.8755	-26.5119	186.653	-63.363	-41.9747	158.624	-77.9208	-42.4322	208.691	-54.2406	0.789112	196.271	-75.5713	-11.8851	168.569	-84.0724	-21.5069	216.612	-6.87285	20.9818	223.083	10.9961	50.5294	204.309	27.8217	25.1638	
149	1.24167	165.681	48.0773	35.3087	142.55	48.2642	19.801	123.07	50.3453	-6.15314	107.351	43.4294	-21.1275	168.898	-3.5034	-39.8446	154.147	-22.2032	-56.1307	134.077	-43.3573	-62.0988	184.859	-23.2804	-38.0805	166.887	-43.9628	-57.4588	139.007	-68.0212	-61.2587	194.229	-40.069	-25.1352	179.56	-61.5705	-41.1965	148.917	-79.3308	-40.9533	201.001	-56.2894	0.948537	188.116	-75.0894	-12.2127	160.167	-83.1476	-20.8472	213.856	-6.69178	22.0652	222.261	6.67408	51.3857	199.63	28.3411	22.9608	
150	1.25	166.647	47.6052	35.7085	141.383	49.6203	15.3783	124.721	50.6039	-4.54539	106.267	50.0584	-22.8092	165.005	-0.292453	-40.599	150.211	-17.4092	-59.2874	123.955	-40.2505	-65.2901	181.133	-26.9734	-39.2083	161.186	-47.2126	-58.053	132.061	-66.9708	-60.7887	190.79	-42.3211	-22.866	170.906	-64.868	-43.1113	145.132	-75.2136	-42.0265	194.677	-55.2353	2.59029	183.163	-74.2509	-10.3136	153.21	-83.705	-19.3075	210.359	-9.15689	19.8201	218.107	5.09959	49.1542	198.835	24.9662	22.6927	
151	1.25833	165.549	47.7423	32.4661	140.213	53.2044	16.5128	125.422	50.1028	-7.90096	106.687	49.9447	-22.905	162.017	0.770316	-40.597	148.304	-19.7391	-57.8256	121.2	-40.4062	-65.1206	178.128	-26.9483	-36.8495	157.879	-44.8861	-58.1431	127.694	-60.6274	-62.8757	185.907	-48.6791	-25.3958	165.435	-66.6977	-42.5023	139.664	-75.604	-40.0848	190.049	-60.7141	5.54967	172.529	-76.7569	-10.8524	142.997	-82.0114	-17.1611	205.728	-11.3364	21.2384	216.655	0.199268	54.5247	196.402	23.3792	23.5398	
152	1.26667	166.398	44.3851	34.586	141.801	53.7392	17.0371	123.73	56.53	-10.4675	108.158	56.1175	-24.6523	161.249	-1.89141	-39.9385	143.854	-17.8307	-60.2257	118.656	-35.4502	-65.6899	172.457	-29.8794	-41.6528	150.416	-42.7858	-59.9004	120.879	-61.4179	-61.6086	180.386	-46.542	-22.8092	161.46	-61.2976	-42.6179	131.903	-71.118	-43.2929	180.385	-59.3209	3.8315	161.52	-79.0038	-9.86614	137.381	-80.0296	-19.0727	204.63	-17.8497	23.1294	209.829	0.592852	53.6844	194.389	22.9769	25.3285	
153	1.275	167.858	46.6289	36.6478	143.891	55.5539	15.3514	127.673	58.7951	-11.1287	109.766	61.2256	-24.5896	157.907	1.78479	-43.6885	141.532	-15.2698	-61.6206	116.714	-31.5351	-67.1824	169.781	-24.536	-38.6598	144.689	-43.3393	-60.4013	111.47	-53.0905	-65.0708	173.525	-46.4976	-27.0059	152.173	-62.2949	-43.7704	123.494	-70.6259	-44.4664	172.464	-61.0206	2.45527	152.813	-75.4524	-11.2094	125.919	-74.0219	-22.7089	198.632	-20.0078	21.7466	209.01	-6.46979	49.8358	194.529	19.0056	26.3143	
154	1.28333	169.718	44.0247	36.177	147.412	55.6531	13.9656	131.67	59.0621	-9.59587	115.094	63.4244	-27.2229	157.678	-2.33871	-43.9136	139.396	-14.0519	-63.4771	113.454	-28.1305	-68.4463	165.966	-28.3597	-39.5151	144.067	-40.9103	-59.4828	107.459	-48.3066	-66.6407	168.884	-47.8382	-22.755	148.086	-63.9064	-41.5115	117.832	-65.1057	-48.5741	163.561	-62.1004	5.06206	146.131	-73.8389	-9.75935	120.51	-75.177	-23.5078	192.146	-20.8232	24.2837	204.312	-12.9929	54.2284	195.212	17.0704	24.2908	
155	1.29167	173.339	41.5087	36.6655	152.562	56.2754	13.1201	137.86	61.8587	-12.024	122.072	62.3952	-27.9559	159.645	-4.33664	-42.3897	138.664	-16.7943	-61.7187	116.176	-23.1016	-70.261	162.756	-29.1741	-41.757	138.227	-43.3427	-60.9633	103.51	-45.2527	-68.0647	162.234	-51.4752	-19.7064	139.828	-64.0768	-43.0797	108.593	-62.4353	-48.8864	155.856	-62.5205	6.42758	133.773	-73.5767	-10.2285	108.969	-69.2686	-25.1074	188.442	-29.8475	22.7415	198.942	-18.4995	55.2497	194.188	9.99601	27.1234	
156	1.3	177.034	41.5083	33.3811	157.486	54.8212	14.9564	144.178	61.1937	-9.98904	130.095	67.8108	-27.8841	160.744	-3.79962	-43.1619	139.508	-15.4956	-64.1668	114.5	-19.8465	-71.2061	159.488	-33.3025	-39.102	139.616	-38.1879	-60.9618	100.501	-42.7078	-68.4692	156.32	-51.076	-25.3469	131.843	-59.7782	-45.6317	102.86	-55.9288	-50.3695	146.566	-62.5057	6.70753	127.945	-68.4142	-11.0217	99.9155	-64.3123	-25.7231	182.725	-31.4771	22.728	194.848	-20.2739	55.3114	196.226	4.13006	25.6952	
157	1.30833	180.775	41.2558	34.9613	162.839	54.3528	8.02813	151.235	62.0282	-15.8307	136.549	66.6192	-33.0546	161.922	-5.12976	-39.5969	141.954	-11.7286	-64.2998	111.659	-14.9577	-74.057	157.287	-32.4972	-41.9618	132.693	-39.6146	-62.1368	99.0352	-38.0013	-71.0285	150.433	-53.0839	-20.4682	130.048	-58.5218	-44.0884	99.1044	-54.7314	-50.1573	139.8	-61.7071	6.78482	121.09	-65.6128	-11.0382	96.9888	-59.5336	-24.5321	181.103	-32.692	28.0965	194.463	-23.3762	56.1729	195.242	3.73088	25.3542	
158	1.31667	183.461	36.298	29.9953	169.94	54.93	11.2009	158.115	60.9934	-15.1111	145.785	71.0456	-35.6012	162.664	-8.50064	-42.2489	145.132	-11.2177	-63.4148	113.976	-14.1389	-74.3749	156.921	-34.7626	-37.8682	134.697	-38.7891	-62.0389	100.628	-34.6543	-72.541	147.926	-51.4774	-21.6385	126.98	-55.5501	-44.2295	96.0507	-45.1171	-55.3766	133.74	-60.6193	6.89321	113.653	-61.4212	-12.9156	90.3166	-55.2198	-24.3613	175.913	-37.1062	24.0634	188.071	-26.3316	54.7792	195.006	-0.438411	25.049	
159	1.325	189.415	35.0423	34.1199	174.678	49.1719	9.95323	167.332	59.4857	-12.2178	155.235	69.8724	-36.6811	165.251	-8.12845	-43.2472	147.507	-12.8797	-62.1881	118.441	-8.66765	-77.6664	157.896	-34.3267	-36.5987	130.958	-38.3282	-64.3042	104.187	-30.8441	-74.273	146.401	-48.5177	-21.5493	123.254	-53.8685	-46.8148	96.8786	-44.3068	-55.042	131.646	-54.9908	5.60395	108.446	-59.4266	-11.9986	90.1968	-45.6313	-29.0196	172.761	-38.7451	29.8154	182.859	-33.2451	57.5591	194.165	-10.0043	26.7099	
160	1.33333	190.265	28.5545	32.2237	183.796	52.8405	10.8578	177.904	62.9511	-13.9625	166.427	71.8747	-36.4839	169.601	-8.62346	-42.4302	150.439	-12.8264	-63.1611	120.471	-7.23994	-79.7343	157.694	-34.6116	-40.733	135.674	-35.0729	-66.0814	107.517	-27.8876	-76.2621	144.026	-49.7878	-25.083	123.759	-50.3246	-48.1502	96.1017	-37.5772	-57.9312	126.068	-54.5708	4.22752	110.171	-54.39	-13.0138	89.6106	-43.5268	-29.0754	172.489	-37.8994	30.3967	180.597	-35.1459	57.8545	196.183	-8.08584	29.3017	
161	1.34167	195.828	28.9659	36.6149	189.217	50.2629	10.4668	184.182	59.6473	-16.7881	176.354	70.3961	-31.9719	174.689	-10.694	-40.3302	154.343	-14.3226	-63.5198	126.941	-4.60431	-80.556	160.65	-34.9506	-40.2489	139.202	-38.2513	-61.0703	113.991	-24.0447	-80.4502	143.878	-48.6704	-22.6487	123.594	-49.3482	-48.4032	101.878	-36.7415	-59.3322	125.507	-51.3242	2.15453	106.465	-52.9711	-13.2653	88.9006	-39.9145	-32.284	172.201	-37.7881	27.1501	181.873	-33.566	62.9467	198.707	-11.2551	32.2576	
162	1.35	199.15	25.5969	35.7473	196.013	48.7507	12.4564	191.571	57.2758	-11.918	184.129	68.7053	-30.8102	177.662	-12.043	-37.6136	159.651	-15.2383	-63.0452	139.595	-4.23316	-80.6483	161.814	-36.7103	-38.8677	144.948	-35.9673	-65.0215	116.181	-20.1914	-84.2347	145.521	-46.3912	-25.2715	127.706	-46.6468	-50.3139	103.023	-28.7374	-63.571	124.864	-50.5106	4.48817	108.449	-48.3688	-17.899	92.3799	-33.0446	-37.6366	167.693	-41.3501	27.6935	178.201	-37.3112	62.2448	197.83	-12.324	29.6399	
